<svg data-v-fde0c5aa="" xmlns="http://www.w3.org/2000/svg" viewBox="0 0 300 300" class="font"><!----><defs data-v-fde0c5aa=""><!----></defs><rect data-v-fde0c5aa="" fill="transparent" x="0" y="0" width="300px" height="300px" class="logo-background-square"></rect><defs data-v-fde0c5aa=""><linearGradient data-v-fde0c5aa="" gradientTransform="rotate(25)" id="23ff8ad6-b81e-4fb8-91e2-6e9ff85d5d23" x1="0%" y1="0%" x2="100%" y2="0%"><stop data-v-fde0c5aa="" offset="0%" stop-color="#0076DD" stop-opacity="1"></stop><stop data-v-fde0c5aa="" offset="100%" stop-color="#E600E9" stop-opacity="1"></stop></linearGradient></defs><g data-v-fde0c5aa="" id="75886200-43a3-407e-ad38-cb665911d357" fill="url(#23ff8ad6-b81e-4fb8-91e2-6e9ff85d5d23)" transform="matrix(2.218189144213172,0,0,2.218189144213172,37.51562814790411,131.31175656577554)"><path d="M8.53 11.45L3.64 11.45L3.64 3.92L1.12 3.92L1.12 13.58L8.53 13.58ZM13.93 13.58L16.39 13.58C16.28 12.75 16.25 12.25 16.25 11.69L16.25 9.59C16.25 9.13 16.24 8.69 16.21 8.32C16.10 6.96 15.29 5.91 12.92 5.91C11.03 5.91 9.48 6.90 9.46 8.65L11.84 8.64C11.89 7.99 12.22 7.62 12.81 7.62C13.36 7.62 13.66 7.95 13.71 8.33C13.73 8.57 13.73 8.72 13.73 8.88L13.73 8.99L13.26 8.99C10.72 8.99 9.21 9.97 9.21 11.56C9.21 13.01 10.37 13.78 11.61 13.78C12.29 13.78 12.92 13.61 13.45 13.27L13.76 12.49ZM12.64 12.07C12.14 12.07 11.79 11.82 11.79 11.37C11.79 10.63 12.60 10.33 13.73 10.42L13.73 10.91C13.73 11.69 13.15 12.07 12.64 12.07ZM20.79 7.73L22.44 7.73L22.44 6.16L20.79 6.16L20.79 4.23L18.27 4.23L18.27 6.16L17.08 6.16L17.08 7.73L18.27 7.73L18.27 10.85C18.27 11.27 18.27 11.62 18.30 12.05C18.38 13.20 18.94 13.78 20.80 13.78C21.34 13.78 21.80 13.73 22.29 13.65L22.29 12.08C21.10 12.14 20.86 11.97 20.80 11.21C20.79 11.02 20.79 10.74 20.79 10.49ZM30.60 9.74C30.60 7.81 29.34 5.91 26.85 5.91C24.36 5.91 22.86 7.69 22.86 9.87C22.86 12.50 24.57 13.78 26.71 13.78C28.63 13.78 30.03 12.82 30.46 11.13L27.99 11.13C27.89 11.70 27.45 12.07 26.74 12.07C26.03 12.07 25.48 11.72 25.35 10.47L30.56 10.47C30.59 10.22 30.60 9.97 30.60 9.74ZM26.73 7.62C27.40 7.62 27.83 8.05 27.97 8.93L25.44 8.93C25.61 8.01 26.07 7.62 26.73 7.62ZM39.21 7.94C39.02 6.64 38.11 5.91 36.57 5.91C35.88 5.91 35.35 6.06 34.89 6.34L34.22 7.27L34.22 6.10L31.70 6.10L31.70 13.58L34.22 13.58L34.22 10.05C34.22 8.36 34.76 7.62 35.53 7.62C36.29 7.62 36.68 8.04 36.74 8.75C36.76 9.13 36.76 9.53 36.76 9.77L36.76 13.58L39.28 13.58L39.28 9.35C39.28 8.75 39.27 8.32 39.21 7.94ZM43.74 7.73L45.39 7.73L45.39 6.16L43.74 6.16L43.74 4.23L41.22 4.23L41.22 6.16L40.03 6.16L40.03 7.73L41.22 7.73L41.22 10.85C41.22 11.27 41.22 11.62 41.24 12.05C41.33 13.20 41.89 13.78 43.75 13.78C44.28 13.78 44.74 13.73 45.23 13.65L45.23 12.08C44.04 12.14 43.81 11.97 43.75 11.21C43.74 11.02 43.74 10.74 43.74 10.49ZM50.06 3.72C48.15 3.72 46.41 4.77 46.41 6.64C46.41 8.57 47.70 9.25 49.90 9.80C51.09 10.09 51.45 10.53 51.45 11.03C51.45 11.56 50.92 11.93 50.22 11.93C49.46 11.93 48.72 11.54 48.55 10.63L46.03 10.63C46.19 12.80 47.84 13.78 50.29 13.78C52.23 13.78 54.08 12.80 54.08 10.86C54.08 9.38 53.21 8.32 51.09 7.81C49.49 7.43 49.04 7.06 49.04 6.44C49.04 5.85 49.43 5.57 50.01 5.57C50.83 5.57 51.25 6.10 51.37 6.90L53.89 6.90C53.68 5.11 52.61 3.72 50.06 3.72ZM58.59 5.91C56.39 5.91 54.66 7.35 54.66 9.93C54.66 12.39 56.28 13.78 58.42 13.78C60.45 13.78 61.95 12.77 62.23 10.84L59.75 10.84C59.61 11.65 59.14 12.07 58.56 12.07C57.71 12.07 57.23 11.37 57.23 9.77C57.23 8.33 57.69 7.62 58.53 7.62C59.16 7.62 59.65 7.98 59.77 8.96L62.20 8.96C62.13 7.28 60.79 5.91 58.59 5.91ZM64.55 3.07C63.77 3.07 63.25 3.54 63.25 4.30C63.25 5.05 63.77 5.53 64.55 5.53C65.34 5.53 65.86 5.05 65.86 4.30C65.86 3.54 65.34 3.07 64.55 3.07ZM65.81 13.58L65.81 6.10L63.29 6.10L63.29 13.58ZM74.65 9.74C74.65 7.81 73.39 5.91 70.90 5.91C68.40 5.91 66.91 7.69 66.91 9.87C66.91 12.50 68.61 13.78 70.76 13.78C72.67 13.78 74.07 12.82 74.51 11.13L72.03 11.13C71.93 11.70 71.50 12.07 70.78 12.07C70.07 12.07 69.52 11.72 69.40 10.47L74.61 10.47C74.63 10.22 74.65 9.97 74.65 9.74ZM70.77 7.62C71.44 7.62 71.88 8.05 72.02 8.93L69.48 8.93C69.65 8.01 70.11 7.62 70.77 7.62ZM83.26 7.94C83.06 6.64 82.15 5.91 80.61 5.91C79.93 5.91 79.39 6.06 78.93 6.34L78.26 7.27L78.26 6.10L75.74 6.10L75.74 13.58L78.26 13.58L78.26 10.05C78.26 8.36 78.81 7.62 79.58 7.62C80.33 7.62 80.72 8.04 80.78 8.75C80.81 9.13 80.81 9.53 80.81 9.77L80.81 13.58L83.33 13.58L83.33 9.35C83.33 8.75 83.31 8.32 83.26 7.94ZM88.27 5.91C86.07 5.91 84.34 7.35 84.34 9.93C84.34 12.39 85.96 13.78 88.10 13.78C90.13 13.78 91.63 12.77 91.91 10.84L89.43 10.84C89.29 11.65 88.82 12.07 88.24 12.07C87.39 12.07 86.91 11.37 86.91 9.77C86.91 8.33 87.37 7.62 88.21 7.62C88.84 7.62 89.33 7.98 89.45 8.96L91.88 8.96C91.81 7.28 90.47 5.91 88.27 5.91ZM100.30 9.74C100.30 7.81 99.04 5.91 96.54 5.91C94.05 5.91 92.55 7.69 92.55 9.87C92.55 12.50 94.26 13.78 96.40 13.78C98.32 13.78 99.72 12.82 100.16 11.13L97.68 11.13C97.58 11.70 97.15 12.07 96.43 12.07C95.72 12.07 95.17 11.72 95.05 10.47L100.25 10.47C100.28 10.22 100.30 9.97 100.30 9.74ZM96.42 7.62C97.09 7.62 97.52 8.05 97.66 8.93L95.13 8.93C95.30 8.01 95.76 7.62 96.42 7.62Z"></path></g><!----><!----></svg>